<?xml version="1.0" encoding="UTF-8" standalone="no"?> <svg width="64" height="64" viewBox="0 0 64 64" fill="none" xmlns="http://www.w3.org/2000/svg">
<path d="M3.92993 31.79H60.2099L57.7899 42.86L52.9299 50.57L45.7899 56.57L34.4999 60L27.4999 59.86L18.8599 56.71L9.85993 49.5L5.28993 39.71L3.92993 31.79Z" fill="#78B9EB"/>
<path d="M51.5999 10.62C51.4036 10.4397 51.1438 10.3447 50.8775 10.3559C50.6112 10.3672 50.3603 10.4837 50.1799 10.68C49.9996 10.8763 49.9046 11.1361 49.9158 11.4024C49.9271 11.6687 50.0436 11.9197 50.2399 12.1C52.8754 14.516 55.0065 17.4301 56.51 20.674C58.0135 23.9179 58.8597 27.4274 58.9999 31H46.8999V14.67C46.8986 14.4765 46.8413 14.2876 46.7348 14.1261C46.6283 13.9645 46.4772 13.8374 46.2999 13.76L40.1899 11.1V4C40.1899 3.73478 40.0846 3.48043 39.897 3.29289C39.7095 3.10536 39.4551 3 39.1899 3H24.8899C24.6247 3 24.3703 3.10536 24.1828 3.29289C23.9953 3.48043 23.8899 3.73478 23.8899 4V7.1L17.6999 9.76C17.521 9.83807 17.3689 9.96677 17.2623 10.1302C17.1557 10.2937 17.0992 10.4848 17.0999 10.68V31H4.99991C5.13622 27.4295 5.97778 23.9213 7.47609 20.6775C8.9744 17.4338 11.0998 14.5186 13.7299 12.1C13.9262 11.9197 14.0427 11.6687 14.054 11.4024C14.0653 11.1361 13.9703 10.8763 13.7899 10.68C13.6096 10.4837 13.3586 10.3672 13.0923 10.3559C12.826 10.3447 12.5662 10.4397 12.3699 10.62C8.10096 14.5292 5.09955 19.6265 3.75194 25.2559C2.40433 30.8853 2.7722 36.7891 4.80819 42.2077C6.84418 47.6262 10.4551 52.3115 15.1763 55.6606C19.8975 59.0097 25.513 60.8692 31.2999 61C31.7596 61.025 32.2203 61.025 32.6799 61C38.466 60.8673 44.0801 59.0063 48.7998 55.6565C53.5195 52.3067 57.1289 47.6213 59.1636 42.2032C61.1984 36.785 61.5654 30.882 60.2175 25.2535C58.8696 19.625 55.8683 14.5286 51.5999 10.62V10.62ZM30.9999 33V44.31C27.369 44.4232 23.7924 45.2241 20.4599 46.67C19.0266 42.2527 18.2713 37.6437 18.2199 33H30.9999ZM33.9999 31H30.1199V24.22H33.9999V31ZM30.9999 46.31V58.92C27.1699 58.36 23.5599 54.55 21.1499 48.55C24.2608 47.1834 27.604 46.4231 30.9999 46.31V46.31ZM32.9999 58.93V46.31C36.3954 46.427 39.7378 47.1871 42.8499 48.55C40.4299 54.59 36.7899 58.4 32.9999 58.93ZM43.5399 46.67C40.2077 45.2231 36.631 44.4223 32.9999 44.31V33H45.7799C45.7294 37.6438 44.9741 42.253 43.5399 46.67V46.67ZM44.8999 15.33V31H40.1899V13.28L44.8999 15.33ZM25.8899 5H38.1899V31H35.9999V23.22C35.9999 22.9548 35.8946 22.7004 35.707 22.5129C35.5195 22.3254 35.2651 22.22 34.9999 22.22H29.1199C28.8547 22.22 28.6003 22.3254 28.4128 22.5129C28.2253 22.7004 28.1199 22.9548 28.1199 23.22V31H25.8899V5ZM19.0999 11.34L23.8899 9.28V31H19.0999V11.34ZM4.99991 33H16.2199C16.2754 37.9462 17.095 42.8542 18.6499 47.55C16.6718 48.5847 14.8167 49.8393 13.1199 51.29C8.17044 46.4585 5.26394 39.9117 4.99991 33V33ZM14.5999 52.63C16.0604 51.4086 17.642 50.3397 19.3199 49.44C20.5388 52.7021 22.4808 55.6457 24.9999 58.05C21.1878 57.0252 17.6476 55.1749 14.6299 52.63H14.5999ZM44.5999 49.44C46.2808 50.3349 47.8628 51.4041 49.3199 52.63C46.3164 55.1568 42.7928 56.9903 38.9999 58C41.4996 55.605 43.4303 52.6799 44.6499 49.44H44.5999ZM50.8299 51.29C49.1348 49.8371 47.2794 48.5824 45.2999 47.55C46.8718 42.8569 47.7083 37.9489 47.7799 33H58.9999C58.7359 39.9117 55.8294 46.4585 50.8799 51.29H50.8299Z" fill="#006DF0"/>
</svg>
