<svg xmlns="http://www.w3.org/2000/svg" viewBox="0 0 100 100" id="Internet">
  <path d="M30 27.4c-3.6-1.3-7-3-10.3-5 5.1-5.5 11.6-9.7 19-11.8-3.6 3.9-6.6 9.7-8.7 16.8zM19.7 77.5c5.1 5.6 11.7 9.7 19.1 11.9-3.7-4-6.7-9.8-8.7-16.9-3.7 1.3-7.2 3-10.4 5zM27 52H9c.4 8.4 3.3 16.1 8 22.4 3.8-2.4 7.8-4.3 11.9-5.8-1.1-5.1-1.7-10.7-1.9-16.6zm34.3 37.4c7.4-2.1 14-6.3 19-11.8-3.3-2-6.7-3.7-10.3-5-2.1 7.1-5.1 12.9-8.7 16.8zm19-66.9c-5.1-5.6-11.7-9.7-19.1-11.9 3.7 4 6.7 9.8 8.7 16.9 3.7-1.3 7.2-3 10.4-5zM29 31.3c-4.1-1.5-8.1-3.4-11.9-5.8C12.4 31.8 9.5 39.6 9 48h18c.2-6 .8-11.6 2-16.7zM73 48h18c-.4-8.4-3.3-16.1-8-22.4-3.8 2.4-7.8 4.3-11.9 5.8 1.1 5.1 1.7 10.7 1.9 16.6zm-2 20.7c4.1 1.5 8.1 3.4 11.9 5.8 4.8-6.3 7.7-14.1 8.1-22.5H73c-.2 6-.8 11.6-2 16.7zM48 90.8V69c-4.8.2-9.6.9-14.2 2.2 3.1 10.6 8.3 18.1 14.2 19.6zM69 52H52v13c5.2.2 10.2 1 15.1 2.4 1.1-4.7 1.7-9.9 1.9-15.4zM52 69v21.7c5.9-1.4 11.1-8.9 14.1-19.5-4.5-1.2-9.3-2-14.1-2.2zm0-59.8V31c4.8-.2 9.6-.9 14.2-2.2C63.1 18.2 57.9 10.6 52 9.2zM31 48h17V35c-5.2-.2-10.2-1-15.1-2.4-1.1 4.7-1.7 9.9-1.9 15.4zm2.9-19.3C38.4 30 43.2 30.8 48 31V9.2c-5.9 1.4-11.1 9-14.1 19.5zm33.2 3.9C62.2 34 57.2 34.8 52 35v13h17c-.2-5.5-.8-10.7-1.9-15.4zM32.9 67.4c4.9-1.4 10-2.2 15.1-2.4V52H31c.2 5.5.8 10.6 1.9 15.4z" fill="#0855a2" class="color000000 svgShape"></path>
</svg>
