<?xml version="1.0" encoding="UTF-8" standalone="no"?> <svg width="64" height="64" viewBox="0 0 64 64" fill="none" xmlns="http://www.w3.org/2000/svg">
<path d="M11.96 15.71C14.5613 15.71 16.67 13.6013 16.67 11C16.67 8.39878 14.5613 6.29004 11.96 6.29004C9.35874 6.29004 7.25 8.39878 7.25 11C7.25 13.6013 9.35874 15.71 11.96 15.71Z" fill="#78B9EB"/>
<path d="M11.96 29.71C14.5613 29.71 16.67 27.6013 16.67 25C16.67 22.3988 14.5613 20.29 11.96 20.29C9.35874 20.29 7.25 22.3988 7.25 25C7.25 27.6013 9.35874 29.71 11.96 29.71Z" fill="#78B9EB"/>
<path d="M11.96 43.7801C14.5613 43.7801 16.67 41.6714 16.67 39.0701C16.67 36.4688 14.5613 34.3601 11.96 34.3601C9.35874 34.3601 7.25 36.4688 7.25 39.0701C7.25 41.6714 9.35874 43.7801 11.96 43.7801Z" fill="#78B9EB"/>
<path d="M11.96 58.0001C14.5613 58.0001 16.67 55.8913 16.67 53.2901C16.67 50.6888 14.5613 48.5801 11.96 48.5801C9.35874 48.5801 7.25 50.6888 7.25 53.2901C7.25 55.8913 9.35874 58.0001 11.96 58.0001Z" fill="#78B9EB"/>
<path d="M12.0001 5.84009C10.9795 5.84009 9.98191 6.14272 9.13335 6.7097C8.28479 7.27669 7.62342 8.08257 7.23287 9.02544C6.84232 9.96831 6.74014 11.0058 6.93924 12.0068C7.13834 13.0077 7.62978 13.9271 8.35142 14.6488C9.07306 15.3704 9.99248 15.8618 10.9934 16.0609C11.9944 16.26 13.0319 16.1579 13.9747 15.7673C14.9176 15.3768 15.7235 14.7154 16.2905 13.8668C16.8575 13.0183 17.1601 12.0206 17.1601 11.0001C17.1574 9.63238 16.613 8.32145 15.6458 7.35434C14.6787 6.38722 13.3678 5.84273 12.0001 5.84009V5.84009ZM12.0001 13.6601C11.474 13.6601 10.9597 13.5041 10.5223 13.2118C10.0848 12.9195 9.7439 12.5041 9.54257 12.018C9.34124 11.532 9.28857 10.9971 9.3912 10.4811C9.49384 9.96516 9.74718 9.49119 10.1192 9.11918C10.4912 8.74718 10.9652 8.49384 11.4812 8.3912C11.9971 8.28856 12.532 8.34124 13.018 8.54257C13.5041 8.7439 13.9195 9.08484 14.2118 9.52227C14.5041 9.95971 14.6601 10.474 14.6601 11.0001C14.6601 11.7056 14.3798 12.3821 13.881 12.881C13.3821 13.3798 12.7056 13.6601 12.0001 13.6601V13.6601Z" fill="#006DF0"/>
<path d="M24.9102 12.3401H55.9102C56.2417 12.3401 56.5596 12.2084 56.794 11.974C57.0285 11.7396 57.1602 11.4216 57.1602 11.0901C57.1602 10.7586 57.0285 10.4406 56.794 10.2062C56.5596 9.97178 56.2417 9.84009 55.9102 9.84009H24.9102C24.5786 9.84009 24.2607 9.97178 24.0263 10.2062C23.7919 10.4406 23.6602 10.7586 23.6602 11.0901C23.6602 11.4216 23.7919 11.7396 24.0263 11.974C24.2607 12.2084 24.5786 12.3401 24.9102 12.3401V12.3401Z" fill="#006DF0"/>
<path d="M12.0001 19.8401C10.9795 19.8401 9.98191 20.1427 9.13335 20.7097C8.28479 21.2767 7.62342 22.0826 7.23287 23.0254C6.84232 23.9683 6.74014 25.0058 6.93924 26.0068C7.13834 27.0077 7.62978 27.9271 8.35142 28.6488C9.07306 29.3704 9.99248 29.8618 10.9934 30.0609C11.9944 30.26 13.0319 30.1579 13.9747 29.7673C14.9176 29.3768 15.7235 28.7154 16.2905 27.8668C16.8575 27.0183 17.1601 26.0206 17.1601 25.0001C17.1574 23.6324 16.613 22.3215 15.6458 21.3543C14.6787 20.3872 13.3678 19.8427 12.0001 19.8401V19.8401ZM12.0001 27.6601C11.474 27.6601 10.9597 27.5041 10.5223 27.2118C10.0848 26.9195 9.7439 26.5041 9.54257 26.018C9.34124 25.532 9.28857 24.9971 9.3912 24.4811C9.49384 23.9652 9.74718 23.4912 10.1192 23.1192C10.4912 22.7472 10.9652 22.4938 11.4812 22.3912C11.9971 22.2886 12.532 22.3412 13.018 22.5426C13.5041 22.7439 13.9195 23.0848 14.2118 23.5223C14.5041 23.9597 14.6601 24.474 14.6601 25.0001C14.6601 25.7056 14.3798 26.3821 13.881 26.881C13.3821 27.3798 12.7056 27.6601 12.0001 27.6601V27.6601Z" fill="#006DF0"/>
<path d="M55.9102 23.8401H24.9102C24.5786 23.8401 24.2607 23.9718 24.0263 24.2062C23.7919 24.4406 23.6602 24.7586 23.6602 25.0901C23.6602 25.4216 23.7919 25.7395 24.0263 25.974C24.2607 26.2084 24.5786 26.3401 24.9102 26.3401H55.9102C56.2417 26.3401 56.5596 26.2084 56.794 25.974C57.0285 25.7395 57.1602 25.4216 57.1602 25.0901C57.1602 24.7586 57.0285 24.4406 56.794 24.2062C56.5596 23.9718 56.2417 23.8401 55.9102 23.8401V23.8401Z" fill="#006DF0"/>
<path d="M12.0001 33.8401C10.9795 33.8401 9.98191 34.1427 9.13335 34.7097C8.28479 35.2767 7.62342 36.0826 7.23287 37.0254C6.84232 37.9683 6.74014 39.0058 6.93924 40.0068C7.13834 41.0077 7.62978 41.9271 8.35142 42.6488C9.07306 43.3704 9.99248 43.8618 10.9934 44.0609C11.9944 44.26 13.0319 44.1579 13.9747 43.7673C14.9176 43.3768 15.7235 42.7154 16.2905 41.8668C16.8575 41.0183 17.1601 40.0206 17.1601 39.0001C17.1574 37.6324 16.613 36.3215 15.6458 35.3543C14.6787 34.3872 13.3678 33.8427 12.0001 33.8401V33.8401ZM12.0001 41.6601C11.474 41.6601 10.9597 41.5041 10.5223 41.2118C10.0848 40.9195 9.7439 40.5041 9.54257 40.018C9.34124 39.532 9.28857 38.9971 9.3912 38.4811C9.49384 37.9652 9.74718 37.4912 10.1192 37.1192C10.4912 36.7472 10.9652 36.4938 11.4812 36.3912C11.9971 36.2886 12.532 36.3412 13.018 36.5426C13.5041 36.7439 13.9195 37.0848 14.2118 37.5223C14.5041 37.9597 14.6601 38.474 14.6601 39.0001C14.6601 39.7056 14.3798 40.3821 13.881 40.881C13.3821 41.3798 12.7056 41.6601 12.0001 41.6601V41.6601Z" fill="#006DF0"/>
<path d="M55.9102 37.8401H24.9102C24.5786 37.8401 24.2607 37.9718 24.0263 38.2062C23.7919 38.4406 23.6602 38.7586 23.6602 39.0901C23.6602 39.4216 23.7919 39.7396 24.0263 39.974C24.2607 40.2084 24.5786 40.3401 24.9102 40.3401H55.9102C56.2417 40.3401 56.5596 40.2084 56.794 39.974C57.0285 39.7396 57.1602 39.4216 57.1602 39.0901C57.1602 38.7586 57.0285 38.4406 56.794 38.2062C56.5596 37.9718 56.2417 37.8401 55.9102 37.8401V37.8401Z" fill="#006DF0"/>
<path d="M12.0001 47.8401C10.9795 47.8401 9.98191 48.1427 9.13335 48.7097C8.28479 49.2767 7.62342 50.0826 7.23287 51.0254C6.84232 51.9683 6.74014 53.0058 6.93924 54.0068C7.13834 55.0077 7.62978 55.9271 8.35142 56.6488C9.07306 57.3704 9.99248 57.8618 10.9934 58.0609C11.9944 58.26 13.0319 58.1579 13.9747 57.7673C14.9176 57.3768 15.7235 56.7154 16.2905 55.8668C16.8575 55.0183 17.1601 54.0206 17.1601 53.0001C17.1574 51.6324 16.613 50.3215 15.6458 49.3543C14.6787 48.3872 13.3678 47.8427 12.0001 47.8401V47.8401ZM12.0001 55.6601C11.474 55.6601 10.9597 55.5041 10.5223 55.2118C10.0848 54.9195 9.7439 54.5041 9.54257 54.018C9.34124 53.532 9.28857 52.9971 9.3912 52.4811C9.49384 51.9652 9.74718 51.4912 10.1192 51.1192C10.4912 50.7472 10.9652 50.4938 11.4812 50.3912C11.9971 50.2886 12.532 50.3412 13.018 50.5426C13.5041 50.7439 13.9195 51.0848 14.2118 51.5223C14.5041 51.9597 14.6601 52.474 14.6601 53.0001C14.6601 53.7056 14.3798 54.3821 13.881 54.881C13.3821 55.3798 12.7056 55.6601 12.0001 55.6601V55.6601Z" fill="#006DF0"/>
<path d="M55.9102 51.8401H24.9102C24.5786 51.8401 24.2607 51.9718 24.0263 52.2062C23.7919 52.4406 23.6602 52.7586 23.6602 53.0901C23.6602 53.4216 23.7919 53.7396 24.0263 53.974C24.2607 54.2084 24.5786 54.3401 24.9102 54.3401H55.9102C56.2417 54.3401 56.5596 54.2084 56.794 53.974C57.0285 53.7396 57.1602 53.4216 57.1602 53.0901C57.1602 52.7586 57.0285 52.4406 56.794 52.2062C56.5596 51.9718 56.2417 51.8401 55.9102 51.8401V51.8401Z" fill="#006DF0"/>
</svg>
